<?xml version="1.0" encoding="UTF-8"?>
<svg id="Layer_1" xmlns="http://www.w3.org/2000/svg" version="1.1" viewBox="0 0 534 535">
  <defs>
    <style>
      .st0 {
        fill: #99d3d7;
      }
    </style>
  </defs>
  <path class="st0" d="M525.64,273.82c4.48.19,8.25-3.32,8.22-7.8-.21-29.79-5.44-59.66-15.84-88.25-1.54-4.24-6.36-6.21-10.5-4.41l-86.32,37.59c-3.9,1.7-5.77,6.15-4.47,10.2,4.22,13.24,6.59,26.89,7.14,40.56.17,4.31,3.54,7.88,7.85,8.07l93.93,4.05ZM250.46,107.38c.71,4.21,4.59,7.09,8.84,6.81,48.8-3.28,98.34,16.64,131.12,57.79,5.25,6.6,9.88,13.5,13.88,20.62,2.09,3.71,6.62,5.38,10.52,3.68l86.31-37.59c4.14-1.8,5.98-6.68,3.92-10.7-7.9-15.45-17.46-30.35-28.69-44.45C417.96,30.21,328.47-3.77,241.68,5.44c-4.49.48-7.56,4.67-6.81,9.12l15.59,92.81ZM430.63,467.04c2.74,3.56,7.88,4.18,11.29,1.25,52.2-44.81,82.77-105.99,90.18-169.85.52-4.52-2.96-8.46-7.5-8.65l-94.14-4.05c-4.2-.18-7.8,2.92-8.47,7.07-5.36,33.03-21.43,64.41-47.56,88.5-3.15,2.91-3.71,7.76-1.09,11.16l57.3,74.58ZM135.46,177.95c3.64,2.14,8.3,1.07,10.84-2.31,7.73-10.31,16.88-19.82,27.44-28.23,16.76-13.35,35.44-22.64,54.86-28.01,4.1-1.13,6.8-5.12,6.1-9.31l-15.59-92.85c-.75-4.45-5.03-7.42-9.43-6.39-36.99,8.62-72.69,25.39-104.37,50.62-21.18,16.87-39.09,36.34-53.61,57.58-2.56,3.74-1.33,8.83,2.58,11.13l81.2,47.77ZM224.05,519.68c-.98,4.43,1.91,8.79,6.4,9.47,63.06,9.49,129.38-3.75,185.6-41.24,3.77-2.51,4.54-7.69,1.78-11.28l-57.38-74.68c-2.58-3.35-7.3-4.1-10.92-1.91-29.56,17.91-63.38,24.82-96.08,21.33-4.2-.45-8.16,2.23-9.07,6.36l-20.33,91.96ZM148.15,493.12c-2.3,3.9-.9,8.95,3.15,10.98,15.24,7.64,31.12,13.74,47.39,18.27,4.33,1.2,8.72-1.54,9.69-5.92l20.3-91.83c.93-4.19-1.63-8.35-5.72-9.65-5.58-1.77-11.07-3.87-16.44-6.28-3.86-1.73-8.46-.41-10.61,3.24l-47.76,81.19ZM114.19,223.96c4.13.91,8.24-1.56,9.6-5.56,1.85-5.46,4.01-10.82,6.47-16.07,1.82-3.88.52-8.57-3.18-10.74l-81.09-47.71c-3.88-2.28-8.88-.93-10.94,3.07-7.76,15.07-14.01,30.79-18.71,46.9-1.27,4.35,1.47,8.8,5.89,9.78l91.95,20.33ZM108.19,274.73c4.22-.41,7.36-4.04,7.41-8.27.06-5.92.47-11.84,1.21-17.71.54-4.25-2.15-8.31-6.34-9.23l-91.84-20.31c-4.39-.97-8.73,1.87-9.45,6.3-2.73,16.77-3.85,33.8-3.33,50.81.14,4.52,4.12,7.91,8.63,7.47l93.72-9.08ZM38.76,377.98c-4.15,1.81-5.98,6.69-3.91,10.71,7.84,15.23,17.3,29.93,28.38,43.85,17.51,21.98,37.81,40.43,60,55.24,3.74,2.5,8.78,1.25,11.06-2.62l47.71-81.1c2.17-3.69,1.04-8.42-2.44-10.93-11.15-8.05-21.4-17.74-30.38-29.02-5.12-6.43-9.64-13.14-13.58-20.07-2.1-3.69-6.61-5.34-10.5-3.64l-86.33,37.6ZM118.58,325.76c3.91-1.7,5.78-6.18,4.46-10.24-1.92-5.95-3.47-11.97-4.65-18.05-.81-4.2-4.62-7.22-8.88-6.8l-93.65,9.07c-4.48.43-7.73,4.48-7.04,8.92,2.63,17.01,6.95,33.86,12.97,50.28,1.55,4.23,6.36,6.19,10.49,4.39l86.29-37.58Z"/>
</svg>